<!-- Generator: Adobe Illustrator 28.3.0, SVG Export Plug-In . SVG Version: 6.00 Build 0)  -->
<svg version="1.1" id="Ebene_1" xmlns="http://www.w3.org/2000/svg" xmlns:xlink="http://www.w3.org/1999/xlink" x="0px" y="0px"
	 viewBox="0 0 1022.4 1013" style="enable-background:new 0 0 1022.4 1013;" xml:space="preserve">
<style type="text/css">
	.st0{clip-path:url(#SVGID_00000163048486861922578610000016676043601587369359_);}
	.st1{clip-path:url(#SVGID_00000145750019856568852790000000307814899165241729_);}
	.st2{fill:#613839;}
	.st3{fill:#5A3936;}
	.st4{fill:#376640;}
	.st5{fill:#753337;}
	.st6{fill:#4070B9;}
	.st7{fill:#973832;}
	.st8{fill:#A63233;}
	.st9{fill:#00A849;}
	.st10{fill:#1FC4F5;}
	.st11{fill:#F03525;}
	.st12{fill:#9C7EB8;}
	.st13{fill:#91C03A;}
</style>
<g>
	<g>
		<defs>
			
				<rect id="SVGID_1_" x="34.9" y="35.5" transform="matrix(0.7071 -0.7071 0.7071 0.7071 -210.9758 508.4381)" width="946.8" height="946.8"/>
		</defs>
		<clipPath id="SVGID_00000072244152297028580550000018042118117539484301_">
			<use xlink:href="#SVGID_1_"  style="overflow:visible;"/>
		</clipPath>
		<g style="clip-path:url(#SVGID_00000072244152297028580550000018042118117539484301_);">
			<rect x="3.3" y="2.4" width="1016" height="1014"/>
			<g>
				<g>
					<defs>
						<rect id="SVGID_00000006700591291837669060000006975978468683949442_" x="3.8" y="2.9" width="1015" height="1013"/>
					</defs>
					<clipPath id="SVGID_00000076583312354880017750000011129429272343651253_">
						<use xlink:href="#SVGID_00000006700591291837669060000006975978468683949442_"  style="overflow:visible;"/>
					</clipPath>
					<g style="clip-path:url(#SVGID_00000076583312354880017750000011129429272343651253_);">
						<rect x="-143.7" y="3.4" class="st2" width="1312" height="222"/>
						<rect x="-143.7" y="794.4" class="st3" width="1312" height="222"/>
						<rect x="796.3" y="-146.6" class="st4" width="222" height="1312"/>
						<rect x="4.3" y="-147.5" class="st5" width="222" height="1312"/>
						
							<rect x="675.5" y="-570.5" transform="matrix(0.7071 -0.7071 0.7071 0.7071 154.1424 662.3233)" class="st6" width="402.2" height="1431.2"/>
						
							<rect x="31.9" y="365.1" transform="matrix(0.7071 -0.7071 0.7071 0.7071 -612.4167 443.847)" class="st7" width="395.3" height="1192.2"/>
						
							<rect x="-535.3" y="31.6" transform="matrix(0.7071 -0.7071 0.7071 0.7071 -146.5108 109.6203)" class="st8" width="1188.7" height="400.2"/>
						
							<rect x="197.2" y="763.3" transform="matrix(0.7071 -0.7071 0.7071 0.7071 -448.6829 841.2416)" class="st9" width="1187.9" height="397.9"/>
						<rect x="906.8" y="2.9" class="st10" width="112" height="1013"/>
						<rect x="3.8" y="3.9" class="st11" width="111" height="1012"/>
						<rect x="3.8" y="2.9" class="st12" width="1015" height="111"/>
						<rect x="3.8" y="905.9" class="st13" width="1015" height="110"/>
					</g>
				</g>
			</g>
		</g>
	</g>
</g>
</svg>
