<svg id="Ebene_1" data-name="Ebene 1" xmlns="http://www.w3.org/2000/svg" version="1.1" xmlns:xlink="http://www.w3.org/1999/xlink" viewBox="0 0 1022.4 1013">
  <defs>
    <style>
      .cls-1 {
        fill: #4070b9;
      }

      .cls-1, .cls-2, .cls-3, .cls-4, .cls-5, .cls-6, .cls-7, .cls-8, .cls-9, .cls-10, .cls-11, .cls-12, .cls-13, .cls-14 {
        stroke-width: 0px;
      }

      .cls-2 {
        fill: #1fc4f5;
      }

      .cls-3 {
        fill: #000;
      }

      .cls-4 {
        fill: #f03525;
      }

      .cls-5 {
        fill: #376640;
      }

      .cls-6 {
        fill: #91c03a;
      }

      .cls-7 {
        fill: none;
      }

      .cls-15 {
        clip-path: url(#clippath-1);
      }

      .cls-8 {
        fill: #5a3936;
      }

      .cls-16 {
        clip-path: url(#clippath);
      }

      .cls-9 {
        fill: #9c7eb8;
      }

      .cls-10 {
        fill: #973832;
      }

      .cls-11 {
        fill: #613839;
      }

      .cls-12 {
        fill: #a63233;
      }

      .cls-13 {
        fill: #00a849;
      }

      .cls-14 {
        fill: #753337;
      }
    </style>
    <clipPath id="clippath">
      <rect class="cls-7" x="34.9" y="35.5" width="946.8" height="946.8" transform="translate(-210.9 508.5) rotate(-45)"/>
    </clipPath>
    <clipPath id="clippath-1">
      <rect class="cls-7" x="3.8" y="2.9" width="1015" height="1013"/>
    </clipPath>
  </defs>
  <g class="cls-16">
    <g>
      <rect class="cls-3" x="3.3" y="2.4" width="1016" height="1014"/>
      <g class="cls-15">
        <g>
          <rect class="cls-11" x="-143.7" y="3.4" width="1312" height="222"/>
          <rect class="cls-8" x="-143.7" y="794.4" width="1312" height="222"/>
          <rect class="cls-5" x="796.3" y="-146.6" width="222" height="1312"/>
          <rect class="cls-14" x="4.3" y="-147.5" width="222" height="1312"/>
          
          <rect class="cls-1" x="675.5" y="-570.5" width="402.2" height="1431.2" transform="translate(154.2 662.3) rotate(-45)"/>
          <rect class="cls-10" x="31.9" y="365.1" width="395.3" height="1192.2" transform="translate(-612.4 443.9) rotate(-45)"/>
          <rect class="cls-12" x="-535.3" y="31.6" width="1188.7" height="400.2" transform="translate(-146.5 109.6) rotate(-45)"/>
          <rect class="cls-13" x="197.2" y="763.3" width="1187.9" height="397.9" transform="translate(-448.7 841.3) rotate(-45)"/>
          
          <rect class="cls-2" x="906.8" y="2.9" width="300" height="1013"/>
          <rect class="cls-4" x="-185.2" y="3.9" width="300" height="1012"/>
          <rect class="cls-9" x="3.8" y="-186.1" width="1015" height="300"/>
          <rect class="cls-6" x="3.8" y="905.9" width="1015" height="300"/>
        </g>
      </g>
    </g>
  </g>
</svg>